<?xml version="1.0" encoding="UTF-8" standalone="no"?>
<svg width="128px" height="128px" viewBox="0 0 128 128" version="1.1" xmlns="http://www.w3.org/2000/svg" xmlns:xlink="http://www.w3.org/1999/xlink" xmlns:sketch="http://www.bohemiancoding.com/sketch/ns">
    <!-- Generator: Sketch 3.3.2 (12043) - http://www.bohemiancoding.com/sketch -->
    <title>feature_build</title>
    <desc>Created with Sketch.</desc>
    <defs></defs>
    <g id="Page-1" stroke="none" stroke-width="1" fill="none" fill-rule="evenodd" sketch:type="MSPage">
        <g id="feature_build" sketch:type="MSArtboardGroup">
            <g id="baardbaard_build" sketch:type="MSLayerGroup" transform="translate(16.000000, 0.000000)">
                <g id="Group" sketch:type="MSShapeGroup">
                    <path d="M95.1,70.7 C95.1,96.8 74,116.1 47.9,116.1 C21.8,116.1 0.7,96.8 0.7,70.7 C0.7,44.6 21.8,23.5 47.9,23.5 C74,23.5 95.1,44.6 95.1,70.7 L95.1,70.7 Z" id="Shape" fill="#000000"></path>
                    <path d="M87.7,70.7 C87.7,92.7 69.9,110.5 47.9,110.5 C25.9,110.5 8.1,92.7 8.1,70.7 C8.1,48.7 25.9,30.9 47.9,30.9 C69.9,30.9 87.7,48.7 87.7,70.7 L87.7,70.7 Z" id="Shape" fill="#FFFFFF"></path>
                    <path d="M27.8,66 C27.8,69.5 24.9,72.4 21.4,72.4 C17.9,72.4 15,69.6 15,66 C15,62.5 17.9,59.6 21.4,59.6 C24.9,59.6 27.8,62.5 27.8,66 L27.8,66 Z" id="Shape" fill="#1A171B"></path>
                    <path d="M80.7,66 C80.7,69.5 77.9,72.4 74.3,72.4 C70.8,72.4 67.9,69.6 67.9,66 C67.9,62.5 70.7,59.6 74.3,59.6 C77.9,59.6 80.7,62.5 80.7,66 L80.7,66 Z" id="Shape" fill="#1A171B"></path>
                    <path d="M47.9,86.4 C37.2,86.4 31.3,85.7 31.3,85.7 C31.3,92.9 38.1,97.3 47.8,97.3 C57.7,97.3 64.5,92.8 64.5,85.7 C64.6,85.7 58.7,86.4 47.9,86.4 L47.9,86.4 Z" id="Shape" fill="#1A171B"></path>
                    <path d="M48.5,4.1 C26.5,4.1 8.7,21.4 8.7,42.8 L88.2,42.8 C88.2,21.4 70.4,4.1 48.5,4.1 L48.5,4.1 Z" id="Shape" stroke="#000000" stroke-width="7"></path>
                    <path d="M97,43.9 C97,46.5 94.9,48.7 92.2,48.7 L4.8,48.7 C2.2,48.7 0,46.6 0,43.9 L0,43.9 C0,41.3 2.1,39.1 4.8,39.1 L92.2,39.1 C94.8,39.1 97,41.2 97,43.9 L97,43.9 L97,43.9 Z" id="Shape" fill="#000000"></path>
                    <g transform="translate(5.000000, 69.000000)" id="Shape" fill="#000000">
                        <path d="M0.6,0 C0.6,0 6,22.5 24.8,14.7 C24.8,14.7 19,17.4 21.1,26.9 C21.1,26.9 9.9,34.7 3.3,16.8 C-8.8817842e-16,7.6 0.6,0 0.6,0 L0.6,0 Z"></path>
                        <path d="M85.3,0 C85.3,0 79.9,22.5 61.1,14.7 C61.1,14.7 66.9,17.4 64.8,26.9 C64.8,26.9 76,34.7 82.6,16.8 C85.9,7.6 85.3,0 85.3,0 L85.3,0 Z"></path>
                    </g>
                    <path d="M47.9,102.9 C46.5,102.9 45.2,102.9 44,102.8 C42.5,105.2 41.5,108.9 41.5,113.1 C41.5,120.3 44.4,123.9 48,126.1 C51.6,123.9 54.5,120.3 54.5,113.1 C54.5,108.9 53.5,105.2 52,102.8 C50.6,102.8 49.3,102.9 47.9,102.9 L47.9,102.9 Z" id="Shape" fill="#000000"></path>
                    <path d="M88.1,40.8 L88.2,40.7 L88.1,40.7 C86.4,20.8 69.3,5.2 48.5,5.2 C26.5,5.2 8.7,22.5 8.7,43.9 L12.2,43.9 L20.5,52.2 L74.3,52.2 L84.3,43.9 L88.2,43.9 C88.2,42.8 88.2,41.8 88.1,40.8 L88.1,40.8 Z" id="Shape" fill="#FFFFFF"></path>
                    <path d="M74.4,55 L20.6,55 C19.5,55 18.5,54.6 17.8,53.8 L10.7,46.7 L8.7,46.7 C6.5,46.7 4.7,44.9 4.7,42.7 C4.7,19.2 24.4,0 48.5,0 C70.7,0 89.6,16.6 92,38 L92,38.1 C92.3,38.8 92.3,39.6 92.2,40.3 C92.3,41.2 92.3,42 92.3,42.7 C92.3,44.9 90.5,46.7 88.3,46.7 L85.9,46.7 L77,54.1 C76.2,54.7 75.3,55 74.4,55 L74.4,55 Z M22.2,47 L72.9,47 L81.8,39.6 C82.4,39.1 83.2,38.8 84,38.7 C81.9,21.4 66.6,8 48.5,8 C30.1,8 15,21.5 13,38.8 C13.8,38.9 14.5,39.3 15.1,39.9 L22.2,47 L22.2,47 Z" id="Shape" fill="#000000"></path>
                    <g transform="translate(33.000000, 2.000000)" id="Shape" fill="#000000">
                        <path d="M4.3,23.4 L4.3,23.4 C2.4,23.4 0.8,21.8 0.8,19.9 L0.8,4.4 C0.8,2.5 2.4,0.9 4.3,0.9 L4.3,0.9 C6.2,0.9 7.8,2.5 7.8,4.4 L7.8,19.9 C7.8,21.8 6.3,23.4 4.3,23.4 L4.3,23.4 Z"></path>
                        <path d="M26.6,23.4 L26.6,23.4 C24.7,23.4 23.1,21.8 23.1,19.9 L23.1,4.4 C23.1,2.5 24.7,0.9 26.6,0.9 L26.6,0.9 C28.5,0.9 30.1,2.5 30.1,4.4 L30.1,19.9 C30.1,21.8 28.6,23.4 26.6,23.4 L26.6,23.4 Z"></path>
                    </g>
                </g>
            </g>
        </g>
    </g>
</svg>