<?xml version="1.0" encoding="UTF-8" standalone="no"?>
<svg width="128px" height="128px" viewBox="0 0 128 128" version="1.1" xmlns="http://www.w3.org/2000/svg" xmlns:xlink="http://www.w3.org/1999/xlink" xmlns:sketch="http://www.bohemiancoding.com/sketch/ns">
    <!-- Generator: Sketch 3.3.2 (12043) - http://www.bohemiancoding.com/sketch -->
    <title>feature_design</title>
    <desc>Created with Sketch.</desc>
    <defs></defs>
    <g id="Page-1" stroke="none" stroke-width="1" fill="none" fill-rule="evenodd" sketch:type="MSPage">
        <g id="feature_design" sketch:type="MSArtboardGroup">
            <g id="baardbaard_design" sketch:type="MSLayerGroup" transform="translate(8.000000, 6.000000)">
                <g id="Group" sketch:type="MSShapeGroup">
                    <path d="M108,47.2 C108,73.3 86.9,92.6 60.8,92.6 C34.7,92.6 13.6,73.3 13.6,47.2 C13.6,21.1 34.7,0 60.8,0 C86.8,0 108,21.1 108,47.2 L108,47.2 Z" id="Shape" fill="#000000"></path>
                    <path d="M100.5,47.2 C100.5,69.2 82.7,87 60.7,87 C38.8,87 21,69.2 21,47.2 C21,25.2 38.8,7.4 60.7,7.4 C82.7,7.4 100.5,25.2 100.5,47.2 L100.5,47.2 Z" id="Shape" fill="#FFFFFF"></path>
                    <path d="M34.2,36.1 C37.7,36.1 40.6,38.9 40.6,42.5 C40.6,46 37.7,48.9 34.2,48.9 C30.7,48.9 27.8,46.1 27.8,42.5 C27.9,39 30.7,36.1 34.2,36.1 L34.2,36.1 Z M34.2,30.1 C27.4,30.1 21.8,35.6 21.8,42.5 C21.8,49.3 27.3,54.9 34.2,54.9 C41,54.9 46.6,49.4 46.6,42.5 C46.6,35.7 41.1,30.1 34.2,30.1 L34.2,30.1 L34.2,30.1 Z" id="Shape" fill="#000000"></path>
                    <path d="M87.2,36.1 C90.7,36.1 93.6,38.9 93.6,42.5 C93.6,46 90.8,48.9 87.2,48.9 C83.7,48.9 80.8,46.1 80.8,42.5 C80.8,39 83.7,36.1 87.2,36.1 L87.2,36.1 Z M87.2,30.1 C80.4,30.1 74.8,35.6 74.8,42.5 C74.8,49.3 80.3,54.9 87.2,54.9 C94,54.9 99.6,49.4 99.6,42.5 C99.5,35.7 94,30.1 87.2,30.1 L87.2,30.1 L87.2,30.1 Z" id="Shape" fill="#000000"></path>
                    <path d="M45.7,41 L39.7,37.4 C40.2,36.5 45.2,28.8 60.8,28.8 C76.5,28.8 81.2,36.6 81.6,37.5 L75.4,40.8 C75.3,40.7 72.2,35.8 60.7,35.8 C49.2,35.8 45.8,40.8 45.7,41 L45.7,41 Z" id="Shape" fill="#000000"></path>
                    <path d="M24.2,38.7 C24.2,38.7 21.6,35.2 17,34.2 L18.6,27.4 C25.8,29.1 29.7,34.4 29.9,34.6 L24.2,38.7 L24.2,38.7 Z" id="Shape" fill="#000000"></path>
                    <path d="M96.6,38.7 L90.9,34.6 C91.1,34.4 95,29 102.2,27.4 L103.8,34.2 C99.2,35.2 96.6,38.6 96.6,38.7 L96.6,38.7 Z" id="Shape" fill="#000000"></path>
                    <g transform="translate(0.000000, 1.000000)" id="Shape" fill="#000000">
                        <path d="M28.9,12.5 L20.2,3.6 C19.8,3.2 19.2,3 18.6,3.2 C18.1,3.4 17.7,3.9 17.6,4.4 C17.3,7 16.4,9.2 14.8,11 C12.8,13.3 10.2,15.3 7.1,16.9 C6.7,17.1 6.4,17.5 6.3,18 C6.2,18.5 6.4,19 6.8,19.3 L19.2,31 C19.5,31.3 19.9,31.4 20.2,31.4 C20.4,31.4 20.5,31.4 20.7,31.3 C21.2,31.1 21.6,30.7 21.7,30.1 C22.3,26.2 27.3,17.3 29.1,14.2 C29.5,13.7 29.4,13 28.9,12.5 L28.9,12.5 Z"></path>
                        <path d="M9.3,7.7 C10.3,6.4 11.1,4.9 11.6,3.4 C11.7,3 11.7,2.5 11.4,2.1 C11.2,1.7 10.8,1.5 10.3,1.4 L2.6,0.4 C2.1,0.3 1.6,0.5 1.3,0.9 C1,1.5 0.9,2 1.1,2.5 L3.6,9.9 C3.7,10.3 4.1,10.7 4.5,10.8 C4.7,10.9 4.9,10.9 5.1,10.9 C5.3,10.9 5.6,10.8 5.8,10.7 C7.1,10 8.3,9 9.3,7.7 L9.3,7.7 Z"></path>
                    </g>
                    <path d="M101.6,59.7 L102.5,57.4 C96.7,57.4 91.8,60.5 90.4,64.5 C88.2,63.1 85.3,62.2 82.2,62.2 C82.2,57 76.6,52.8 69.6,52.8 C66.1,52.8 63,53.9 60.7,55.6 C58.4,53.9 55.3,52.8 51.8,52.8 C44.9,52.8 39.2,57 39.2,62.2 C36.1,62.2 33.2,63.1 31,64.5 C29.6,60.4 24.8,57.4 18.9,57.4 L19.8,59.7 L31.7,84 L47.3,95.3 L62.2,96.5 L74.4,90.7 L88.7,83.7 L101.6,59.7 L101.6,59.7 Z" id="Shape" fill="#000000"></path>
                    <path d="M60.8,62.9 C50.1,62.9 44.2,62.2 44.2,62.2 C44.2,69.4 51,73.8 60.7,73.8 C70.6,73.8 77.4,69.3 77.4,62.2 C77.4,62.2 71.5,62.9 60.8,62.9 L60.8,62.9 Z" id="Shape" fill="#FFFFFF"></path>
                    <ellipse id="Oval" fill="#000000" cx="60.6" cy="103.8" rx="10.8" ry="11.9"></ellipse>
                    <path d="M24.5,70.7 C24.4,71.1 20.8,58.1 18.9,51.3 C17.8,50.8 16.6,50.7 15.6,51 C11.6,52.2 10.1,59.2 12.4,66.6 C14.5,74 19.6,79 23.6,77.8 C27.1,76.7 28.7,71.3 27.5,64.9 C25.9,67.9 24.6,70.5 24.5,70.7 L24.5,70.7 Z" id="Shape" fill="#000000"></path>
                    <path d="M99.8,70.7 C99.9,71.1 103.5,58.1 105.4,51.3 C106.5,50.8 107.7,50.7 108.7,51 C112.7,52.2 114.2,59.2 111.9,66.6 C109.7,74 104.6,79 100.6,77.8 C97.1,76.7 95.5,71.3 96.7,64.9 C98.4,67.9 99.7,70.5 99.8,70.7 L99.8,70.7 Z" id="Shape" fill="#000000"></path>
                    <circle id="Oval" fill="#000000" cx="29.5" cy="82" r="13.3"></circle>
                    <circle id="Oval" fill="#000000" cx="44.3" cy="97.8" r="13.3"></circle>
                    <circle id="Oval" fill="#000000" cx="92.9" cy="82" r="13.3"></circle>
                    <circle id="Oval" fill="#000000" cx="78.1" cy="97.8" r="13.3"></circle>
                </g>
            </g>
        </g>
    </g>
</svg>