<?xml version="1.0" encoding="UTF-8" standalone="no"?>
<svg width="128px" height="128px" viewBox="0 0 128 128" version="1.1" xmlns="http://www.w3.org/2000/svg" xmlns:xlink="http://www.w3.org/1999/xlink" xmlns:sketch="http://www.bohemiancoding.com/sketch/ns">
    <!-- Generator: Sketch 3.3.2 (12043) - http://www.bohemiancoding.com/sketch -->
    <title>feature_service</title>
    <desc>Created with Sketch.</desc>
    <defs></defs>
    <g id="Page-1" stroke="none" stroke-width="1" fill="none" fill-rule="evenodd" sketch:type="MSPage">
        <g id="feature_service" sketch:type="MSArtboardGroup">
            <g id="baardbaard_service" sketch:type="MSLayerGroup" transform="translate(4.000000, 10.000000)">
                <g id="Group" sketch:type="MSShapeGroup">
                    <path d="M120,17.8 C119.9,17.1 119.5,16.4 118.8,16.1 C118.1,15.8 117.3,15.9 116.8,16.4 L107.5,24 L99,22.2 L97.3,13.6 L105,4.3 C105.5,3.7 105.6,2.9 105.3,2.3 C105,1.6 104.4,1.1 103.6,1.1 C102.3,1 101.3,0.9 100.4,0.9 C96.2,0.9 93.2,2.1 90.3,5 C85.8,9.4 84.7,15 87,20.8 L66.5,41.3 C65.7,42.1 65.7,43.3 66.5,44.1 L77,54.6 C77.4,55 77.9,55.2 78.4,55.2 C78.9,55.2 79.4,55 79.8,54.6 L100.2,34.2 C102.1,35 104.1,35.4 105.9,35.4 C109.6,35.4 113,33.9 115.9,31.1 C120.3,26.7 120.3,22.3 120,17.8 L120,17.8 Z" id="Shape" fill="#000000"></path>
                    <ellipse id="Oval" fill="#000000" cx="47.1" cy="56.6" rx="45.9" ry="51.1"></ellipse>
                    <path d="M94.4,51.6 C94.4,77.7 73.2,97 47.2,97 C21.1,97 0,77.7 0,51.6 C0,25.5 21.1,4.4 47.2,4.4 C73.2,4.4 94.4,25.5 94.4,51.6 L94.4,51.6 Z" id="Shape" fill="#000000"></path>
                    <path d="M87,51.6 C87,73.6 69.2,91.4 47.2,91.4 C25.2,91.4 7.4,73.6 7.4,51.6 C7.4,29.6 25.2,11.8 47.2,11.8 C69.2,11.8 87,29.6 87,51.6 L87,51.6 Z" id="Shape" fill="#FFFFFF"></path>
                    <path d="M27,46.9 C27,50.4 24.1,53.3 20.6,53.3 C17.1,53.3 14.2,50.5 14.2,46.9 C14.2,43.4 17.1,40.5 20.6,40.5 C24.2,40.5 27,43.4 27,46.9 L27,46.9 Z" id="Shape" fill="#000000"></path>
                    <path d="M80,46.9 C80,50.4 77.2,53.3 73.6,53.3 C70.1,53.3 67.2,50.5 67.2,46.9 C67.2,43.4 70,40.5 73.6,40.5 C77.1,40.5 80,43.4 80,46.9 L80,46.9 Z" id="Shape" fill="#000000"></path>
                    <g transform="translate(12.000000, 45.000000)" id="Shape">
                        <g>
                            <path d="M26.9,12.9 C26.9,14 26,14.8 25,14.8 L2.3,14.8 C1.2,14.8 0.4,13.9 0.4,12.9 L0.4,2.5 C0.4,1.4 1.3,0.6 2.3,0.6 L25,0.6 C26.1,0.6 26.9,1.5 26.9,2.5 L26.9,12.9 L26.9,12.9 Z" fill="#FFFFFF"></path>
                            <path d="M21.9,5.5 L21.9,9.8 L5.3,9.8 L5.3,5.5 L21.9,5.5 L21.9,5.5 Z M25,0.5 L2.3,0.5 C1.2,0.5 0.4,1.4 0.4,2.4 L0.4,12.8 C0.4,13.9 1.3,14.7 2.3,14.7 L25,14.7 C26.1,14.7 26.9,13.8 26.9,12.8 L26.9,2.5 C26.9,1.4 26.1,0.5 25,0.5 L25,0.5 L25,0.5 Z" fill="#000000"></path>
                        </g>
                        <g transform="translate(43.000000, 0.000000)">
                            <path d="M27.1,12.9 C27.1,14 26.2,14.8 25.2,14.8 L2.4,14.8 C1.3,14.8 0.5,13.9 0.5,12.9 L0.5,2.5 C0.5,1.4 1.4,0.6 2.4,0.6 L25.1,0.6 C26.2,0.6 27,1.5 27,2.5 L27,12.9 L27.1,12.9 Z" fill="#FFFFFF"></path>
                            <path d="M22.1,5.5 L22.1,9.8 L5.4,9.8 L5.4,5.5 L22.1,5.5 L22.1,5.5 Z M25.1,0.5 L2.4,0.5 C1.3,0.5 0.5,1.4 0.5,2.4 L0.5,12.8 C0.5,13.9 1.4,14.7 2.4,14.7 L25.1,14.7 C26.2,14.7 27,13.8 27,12.8 L27,2.5 C27.1,1.4 26.2,0.5 25.1,0.5 L25.1,0.5 L25.1,0.5 Z" fill="#000000"></path>
                        </g>
                    </g>
                    <path d="M38.8,54.7 L38.9,54.6 L34.3,50.7 C34.8,50.1 38,46.9 47.2,46.9 C56.4,46.9 59.5,50.2 60,50.8 L55.3,54.5 C55.3,54.5 55.3,54.6 55.4,54.6 C55.4,54.6 53.5,52.8 47.2,52.8 C40.8,52.9 38.8,54.7 38.8,54.7 L38.8,54.7 Z" id="Shape" fill="#000000"></path>
                    <path d="M82.2,51.3 L82.3,51.2 L77.7,47.3 C78.2,46.7 81.4,43.5 90.6,43.5 L90.6,49.5 C84.2,49.4 82.2,51.3 82.2,51.3 L82.2,51.3 Z" id="Shape" fill="#000000"></path>
                    <path d="M12.9,51.3 C12.9,51.3 10.9,49.5 4.5,49.5 L4.5,43.5 C13.7,43.5 16.8,46.7 17.4,47.3 L12.8,51.2 C12.8,51.1 12.9,51.2 12.9,51.3 L12.9,51.3 Z" id="Shape" fill="#000000"></path>
                    <g transform="translate(4.000000, 59.000000)" id="Shape" fill="#000000">
                        <path d="M82.2,13.4 C81.9,13.1 81.5,12.8 81.2,12.6 C83.4,7.1 85.8,0.8 85.8,0.8 C85.8,0.8 79,10 72.8,10 L72.8,10 C68.7,10 65.9,6.8 64.4,4.6 C63.9,3.4 43.1,1.7 43.1,1.7 C43.1,1.7 22.4,3.4 21.8,4.6 C20.4,6.8 17.5,10 13.4,10 L13.4,10 C7.2,10 0.4,0.8 0.4,0.8 C0.4,0.8 3,7.1 5.2,12.6 C4.9,12.8 4.5,13.1 4.2,13.4 C5.2,14.9 6.2,16.4 7.2,17.7 C7.9,19.5 8.3,20.7 8.4,20.9 C8.4,20.8 8.9,20.8 9.8,20.8 C11.4,22.7 12.6,23.9 12.6,23.9 C12.6,23.9 26.4,35.2 38.9,35.7 C40.7,35.8 42.1,35.8 43.3,35.8 C44.4,35.8 45.9,35.8 47.7,35.7 C60.2,35.2 74,23.9 74,23.9 C74,23.9 75.2,22.7 76.8,20.8 C77.6,20.8 78.1,20.8 78.2,20.9 C78.2,20.7 78.7,19.5 79.4,17.7 C80.2,16.4 81.2,14.9 82.2,13.4 L82.2,13.4 Z M43.1,19.2 C33.4,19.2 26.6,14.8 26.6,7.6 C26.6,7.6 32.5,8.3 43.2,8.3 C53.9,8.3 59.8,7.6 59.8,7.6 C59.8,14.7 53,19.2 43.1,19.2 L43.1,19.2 Z"></path>
                        <path d="M78.1,20.8 L78.1,20.8 C78.1,20.8 78.1,20.9 78.1,20.8 L78.1,20.8 Z"></path>
                        <path d="M8.3,20.8 L8.3,20.8 C8.3,20.9 8.3,20.8 8.3,20.8 L8.3,20.8 Z"></path>
                    </g>
                    <path d="M18.8,34.2 L26.4,15 L8,33.3 L18.8,34.2 Z" id="Shape" fill="#000000"></path>
                    <path d="M76.3,34.2 L68.8,15 L87.1,33.3 L76.3,34.2 Z" id="Shape" fill="#000000"></path>
                    <path d="M54.8,18.1 C54.8,20.6 51.7,22.6 47.9,22.6 L47.9,22.6 C44.1,22.6 41,20.6 41,18.1 L41,9.7 C41,7.2 44.1,5.2 47.9,5.2 L47.9,5.2 C51.7,5.2 54.8,7.2 54.8,9.7 L54.8,18.1 L54.8,18.1 Z" id="Shape" fill="#000000"></path>
                </g>
            </g>
        </g>
    </g>
</svg>