<svg xmlns="http://www.w3.org/2000/svg" width="200" preserveAspectRatio="xMinYMin meet" viewBox="0 0 446.49 263.071">
  <path fill="none" stroke="#000" stroke-width="8" stroke-miterlimit="10" d="M428.499 54.24c0-1.604-2.451-25.419-8.787-42.814-2.82-7.741-24.116-3.474-49.258-4.906 0 0-6.477-4.468-8.99-4.495-42.51-.458-108.314 5.722-156.954 8.992-1.47.099-4.904 3.27-4.904 3.27l-79.651-.971s-36.628-.49-37.858.562c-1.467 1.252 0 17.371 0 17.371 2.451 9.605-31.596 24.194-35.152 26.159-1.471.813-4.859-3.052-6.335-2.248-5.86 3.189-10.809 9.585-14.987 18.052-1.81 3.664 21.219-.123 19.688 4.224-5.006 14.209-8.219 30.121-13.942 48.438-2.948 9.435-22.23 13.346-22.23 22.886l-.001 51.856C2.275 201.488 2 203.162 2 212.134c0 8.973 4.298 9.337 8.361 9.337h11.734s5.794-35.516 12.587-35.516H79.03c14.35 0 9.648 39.39 18.802 39.648 44.101 1.247 187.413-2.192 187.413-2.192s1.415-26.486 17.568-30.1c15.532-3.473 31.473-3.678 44.961 0 7.948 2.168 12.157 11.885 15.124 29.021.612 3.542 65.806-3.883 65.806-3.883v3.006h7.538c.864 0 .107-2.505.381-3.976.172-.917 4.434.101 5.059-.92 2.345-3.832 4.389-13.931 1.073-16.094-2.654-1.732-6.025-1.005-5.978-1.533.49-5.459.302-23.197.302-23.197l-8.58-121.495z"/>
  <circle fill="#000" stroke="#000" stroke-width="0" stroke-miterlimit="10" cx="57.572" cy="230.21" r="30.859"/>
  <circle fill="#fff" stroke="#000" stroke-width="0" stroke-miterlimit="10" cx="57.572" cy="230.21" r="13.693"/>
  <circle fill="#000" stroke="#000" stroke-width="0" stroke-miterlimit="10" cx="323.496" cy="230.21" r="30.859"/>
  <circle fill="#fff" stroke="#000" stroke-width="0" stroke-miterlimit="10" cx="323.496" cy="230.21" r="13.692"/>
  <path fill="none" stroke="#000" stroke-width="8" stroke-miterlimit="10" d="M221.678 119.74a7.355 7.355 0 01-7.356 7.356h-49.049a7.355 7.355 0 01-7.356-7.356V69.874a7.356 7.356 0 017.356-7.357h49.049a7.356 7.356 0 017.356 7.357v49.866zm147.554-6.132a7.357 7.357 0 01-7.356 7.357h-66.625a7.357 7.357 0 01-7.357-7.357V85.814a7.356 7.356 0 017.357-7.356h66.625a7.356 7.356 0 017.356 7.356v27.794zM140.34 119.74a7.355 7.355 0 01-7.356 7.356H83.117a7.356 7.356 0 01-7.357-7.356V69.874a7.357 7.357 0 017.357-7.357h49.866a7.356 7.356 0 017.356 7.357v49.866z"/>
  <path fill="#000" stroke="#000" stroke-width="4" stroke-linejoin="round" stroke-miterlimit="10" d="M435.373 152.633H9.136s7.108-15.963 11.036-15.928c10.238.093 414.15-.002 414.15-.002l1.051 15.93z"/>
</svg>
