<?xml version="1.0" encoding="UTF-8" standalone="no"?>
<svg width="102px" height="128px" viewBox="0 0 102 128" version="1.1" xmlns="http://www.w3.org/2000/svg" xmlns:xlink="http://www.w3.org/1999/xlink" xmlns:sketch="http://www.bohemiancoding.com/sketch/ns">
    <!-- Generator: Sketch 3.3.2 (12043) - http://www.bohemiancoding.com/sketch -->
    <title>logo~hover</title>
    <desc>Created with Sketch.</desc>
    <defs></defs>
    <g id="Page-1" stroke="none" stroke-width="1" fill="none" fill-rule="evenodd" sketch:type="MSPage">
        <g id="logo~hover" sketch:type="MSArtboardGroup">
            <g sketch:type="MSLayerGroup">
                <path d="M50.961,21.605 C30.725,21.605 7.163,31.625 7.163,51.704 C7.163,86.226 32.761,116.05 50.961,127.95 C69.279,116.13 94.76,86.227 94.76,51.705 C94.76,31.665 71.197,21.605 50.961,21.605 L50.961,21.605 L50.961,21.605 Z" id="Shape" fill="#000000" sketch:type="MSShapeGroup"></path>
                <path d="M102,51 C102,79.182 79.182,100.043 51,100.043 C22.819,100.043 0,79.182 0,51 C0,22.819 22.819,0 51,0 C79.182,0 102,22.819 102,51 L102,51 L102,51 Z" id="Shape_1_" fill="#000000" sketch:type="MSShapeGroup"></path>
                <path d="M94.016,51 C94.016,74.758 74.758,94.016 51,94.016 C27.242,94.016 7.985,74.758 7.985,51 C7.985,27.242 27.242,7.985 51,7.985 C74.758,8.024 94.016,27.242 94.016,51 L94.016,51 L94.016,51 Z" id="Shape_2_" fill="#FFFFFF" sketch:type="MSShapeGroup"></path>
                <path d="M89.592,78.789 C89.632,78.516 89.671,78.242 89.671,77.968 L89.553,77.968 C88.418,60.902 69.709,57.537 51,57.537 C32.252,57.537 13.582,60.903 12.408,77.968 L12.29,77.968 C12.29,78.242 12.329,78.516 12.329,78.789 C12.329,79.063 12.29,79.338 12.29,79.611 L12.408,79.611 C13.582,96.677 52.918,98.047 51,98.047 C49.082,98.047 88.418,96.677 89.553,79.611 L89.671,79.611 C89.632,79.338 89.592,79.063 89.592,78.789 L89.592,78.789 L89.592,78.789 Z" id="Shape_3_" fill="#000000" sketch:type="MSShapeGroup"></path>
                <path d="M0,51 C0,89.71 20.705,108.302 20.705,108.302 C20.745,108.223 29.786,99.026 30.412,77.498 C31.039,57.732 0,51 0,51 L0,51 L0,51 Z" id="Shape_4_" fill="#000000" sketch:type="MSShapeGroup"></path>
                <path d="M102,51 C102,89.71 81.451,108.302 81.451,108.302 C81.412,108.223 72.371,99.026 71.744,77.498 C71.157,57.732 102,51 102,51 L102,51 L102,51 Z" id="Shape_5_" fill="#000000" sketch:type="MSShapeGroup"></path>
                <path d="M29.238,45.912 C29.238,49.709 26.146,52.762 22.349,52.762 C18.553,52.762 15.46,49.67 15.46,45.912 C15.46,42.116 18.552,39.023 22.349,39.023 C26.146,39.062 29.238,42.115 29.238,45.912 L29.238,45.912 L29.238,45.912 Z" id="Shape_6_" fill="#000000" sketch:type="MSShapeGroup"></path>
                <path d="M41.489,2.857 L39.141,27.476 L45.638,27.476 L43.25,44.307 L62.781,23.562 L54.758,23.562 L64.543,2.857 L41.489,2.857 L41.489,2.857 L41.489,2.857 Z" id="Shape_7_" fill="#000000" sketch:type="MSShapeGroup"></path>
                <path d="M50.961,69.044 C39.376,69.044 32.996,68.3 32.996,68.3 C32.996,76.089 40.393,80.785 50.844,80.785 C61.569,80.785 68.927,75.932 68.927,68.3 C68.965,68.3 62.547,69.044 50.961,69.044 L50.961,69.044 L50.961,69.044 Z" id="Shape_8_" fill="#FFFFFF" sketch:type="MSShapeGroup"></path>
                <path d="M70.922,50.256 C70.531,50.256 70.14,50.178 69.787,49.982 C69.083,49.59 68.613,48.847 68.574,48.025 C68.574,47.79 68.418,42.35 74.211,39.492 C75.385,38.905 76.793,39.414 77.342,40.549 C77.929,41.723 77.42,43.132 76.285,43.68 C76.129,43.758 75.972,43.837 75.853,43.915 C78.554,43.563 81.92,43.837 85.326,45.755 C86.461,46.381 86.852,47.829 86.226,48.964 C85.599,50.099 84.152,50.49 83.017,49.864 C77.654,46.85 72.331,49.825 72.096,49.982 C71.744,50.139 71.314,50.256 70.922,50.256 L70.922,50.256 L70.922,50.256 Z" id="Shape_9_" fill="#000000" sketch:type="MSShapeGroup"></path>
            </g>
        </g>
    </g>
</svg>