<?xml version="1.0" encoding="UTF-8" standalone="no"?>
<svg width="102px" height="128px" viewBox="0 0 102 128" version="1.1" xmlns="http://www.w3.org/2000/svg" xmlns:xlink="http://www.w3.org/1999/xlink" xmlns:sketch="http://www.bohemiancoding.com/sketch/ns">
    <!-- Generator: Sketch 3.3.2 (12043) - http://www.bohemiancoding.com/sketch -->
    <title>Slice 1</title>
    <desc>Created with Sketch.</desc>
    <defs></defs>
    <g id="Page-1" stroke="none" stroke-width="1" fill="none" fill-rule="evenodd" sketch:type="MSPage">
        <g id="baardbaard_logo" sketch:type="MSLayerGroup">
            <g id="Group" sketch:type="MSShapeGroup">
                <path d="M50.8827586,21.6073394 C30.6781609,21.6073394 7.15172414,31.6281346 7.15172414,51.7088685 C7.15172414,86.2336391 32.7103448,116.061162 50.8827586,127.960856 C69.1724138,116.13945 94.6137931,86.2336391 94.6137931,51.7088685 C94.6137931,31.6672783 71.0873563,21.6073394 50.8827586,21.6073394 L50.8827586,21.6073394 Z" id="Shape" fill="#000000"></path>
                <path d="M101.843678,51.0042813 C101.843678,79.1877676 79.0597701,100.051376 50.9218391,100.051376 C22.783908,100.051376 0,79.1877676 0,51.0042813 C0,22.8207951 22.783908,0 50.9218391,0 C79.0597701,0 101.843678,22.8207951 101.843678,51.0042813 L101.843678,51.0042813 Z" id="Shape" fill="#000000"></path>
                <path d="M93.8712644,51.0042813 C93.8712644,74.764526 74.6436782,94.0232416 50.9218391,94.0232416 C27.2,94.0232416 7.97241379,74.764526 7.97241379,51.0042813 C7.97241379,27.2440367 27.2,7.9853211 50.9218391,7.9853211 C74.6436782,8.02446483 93.8712644,27.2440367 93.8712644,51.0042813 L93.8712644,51.0042813 Z" id="Shape" fill="#FFFFFF"></path>
                <path d="M89.4551724,78.7963303 C89.4942529,78.5223242 89.5333333,78.248318 89.5333333,77.9743119 L89.416092,77.9743119 C88.2827586,60.9076453 69.6022989,57.5412844 50.9218391,57.5412844 C32.2022989,57.5412844 13.5609195,60.9076453 12.3885057,77.9743119 L12.2712644,77.9743119 C12.2712644,78.248318 12.3103448,78.5223242 12.3103448,78.7963303 C12.3103448,79.0703364 12.2712644,79.3443425 12.2712644,79.6183486 L12.3885057,79.6183486 C13.5609195,96.6850153 52.8367816,98.0550459 50.9218391,98.0550459 C49.0068966,98.0550459 88.2827586,96.6850153 89.416092,79.6183486 L89.5333333,79.6183486 C89.4942529,79.3443425 89.4551724,79.0703364 89.4551724,78.7963303 L89.4551724,78.7963303 Z" id="Shape" fill="#000000"></path>
                <path d="M0,51.0042813 C0,89.7174312 20.6735632,108.310703 20.6735632,108.310703 C20.7126437,108.232416 29.7402299,99.0336391 30.3655172,77.5045872 C30.9908046,57.7370031 0,51.0042813 0,51.0042813 L0,51.0042813 Z" id="Shape" fill="#000000"></path>
                <path d="M101.843678,51.0042813 C101.843678,89.7174312 81.3264368,108.310703 81.3264368,108.310703 C81.2873563,108.232416 72.2597701,99.0336391 71.6344828,77.5045872 C71.0482759,57.7370031 101.843678,51.0042813 101.843678,51.0042813 L101.843678,51.0042813 Z" id="Shape" fill="#000000"></path>
                <path d="M29.1931034,45.9155963 C29.1931034,49.7125382 26.1057471,52.7657492 22.3149425,52.7657492 C18.5241379,52.7657492 15.4367816,49.6733945 15.4367816,45.9155963 C15.4367816,42.1186544 18.5241379,39.0262997 22.3149425,39.0262997 C26.1057471,39.0654434 29.1931034,42.1186544 29.1931034,45.9155963 L29.1931034,45.9155963 Z" id="Shape" fill="#000000"></path>
                <path d="M86.3287356,45.9155963 C86.3287356,49.7125382 83.2413793,52.7657492 79.4505747,52.7657492 C75.6597701,52.7657492 72.6114943,49.6733945 72.6114943,45.9155963 C72.6114943,42.1186544 75.6597701,39.0262997 79.4505747,39.0262997 C83.2413793,39.0654434 86.3287356,42.1186544 86.3287356,45.9155963 L86.3287356,45.9155963 Z" id="Shape" fill="#000000"></path>
                <path d="M41.4252874,2.85749235 L39.0804598,27.4788991 L45.5678161,27.4788991 L43.183908,44.3107034 L62.6850575,23.564526 L54.6735632,23.564526 L64.4436782,2.85749235 L41.4252874,2.85749235 Z" id="Shape" fill="#000000"></path>
                <path d="M50.8827586,69.0495413 C39.3149425,69.0495413 32.9448276,68.3058104 32.9448276,68.3058104 C32.9448276,76.0954128 40.3310345,80.7926606 50.7655172,80.7926606 C61.4735632,80.7926606 68.8206897,75.9388379 68.8206897,68.3058104 C68.8597701,68.3058104 62.4505747,69.0495413 50.8827586,69.0495413 L50.8827586,69.0495413 Z" id="Shape" fill="#FFFFFF"></path>
            </g>
        </g>
    </g>
</svg>