<?xml version="1.0" encoding="UTF-8"?>
<svg enable-background="new 0 0 512 103.94" version="1.1" viewBox="0 0 512 103.94" xml:space="preserve" xmlns="http://www.w3.org/2000/svg">
<style type="text/css">
	.st0{fill:#909090;}
	.st1{fill:#FF6400;}
</style>

	
		
			<path d="M2.65,66.68l6.6-0.66V9.24L2.65,8.8V1.21H35c20.14,0,38.62,9.24,38.62,36.2c0,26.63-18.38,36.31-38.29,36.31H2.65V66.68z      M29.27,8.91v57h4.95c12.32,0,17.94-6.6,17.94-28.5c0-23.33-5.83-28.5-17.72-28.5H29.27z"/>
			<path d="m129.6 14.97c-1.43-5.39-2.42-6.06-9.13-6.06h-14.74v24.1h6.05c2.98 0 4.19-0.77 4.63-3.63l1.21-7.04h5.17v28.5h-5.5l-1.1-6.93c-0.56-3.85-1.65-4.29-4.62-4.29h-5.83v26.41h16.51c7.7 0 8.58-0.44 9.9-6.16l2.97-11.66h6.16v25.53h-62.18v-7.04l6.6-0.99v-56.36l-6.6-0.55v-7.59h59.09v22.78h-6.05l-2.54-9.02z"/>
			<path d="m177.56 67.23-1.87 5.5h-6.6v-22.89l6.71 0.11c1.98 12.98 10.46 18.38 19.59 18.38 7.48 0 11.66-3.42 11.66-9.03 0-6.27-4.84-8.91-16.83-12.65-14.2-4.29-21.13-11.66-21.13-23.44 0-14.74 11-23.22 24.43-23.22 8.04 0 13.98 2.97 17.28 7.7l1.87-5.17h5.94v19.26h-6.6c-2.2-8.58-8.69-14.63-18.15-14.63-7.04 0-10.67 3.41-10.67 8.25 0 6.05 5.28 7.81 17.6 11.66 12 3.85 21.9 9.57 21.9 24.1 0 14.64-9.79 24.43-25.86 24.43-8.59 0-14.86-2.75-19.27-8.36z"/>
			<path d="m227.84 66.68 6.6-0.55v-56.89l-6.6-0.44v-7.59h33.67c17.82 0 28.28 7.04 28.28 20.79 0 16.07-12.77 21.9-27.62 21.9-2.86 0-5.5-0.22-7.7-0.55v22.67l8.91 0.66v7.04h-35.54v-7.04zm26.62-57.77v27.62c1.32 0.11 2.86 0.22 4.4 0.22 7.26 0 10.57-3.08 10.57-14.08 0-10.78-3.41-13.76-11.01-13.76h-3.96z"/>
			<path d="m344.68 14.97c-1.43-5.39-2.43-6.06-9.13-6.06h-14.75v24.1h6.05c2.98 0 4.19-0.77 4.63-3.63l1.2-7.04h5.18v28.5h-5.5l-1.11-6.93c-0.55-3.85-1.64-4.29-4.62-4.29h-5.84v26.41h16.5c7.7 0 8.58-0.44 9.9-6.16l2.98-11.66h6.16v25.53h-62.16v-7.04l6.59-0.99v-56.36l-6.59-0.55v-7.59h59.09v22.78h-6.06l-2.52-9.02z"/>
			<path d="m362.38 66.68 6.49-0.77v-56.78l-6.49-0.33v-7.59h34.44v7.59l-7.81 0.55v56.56h12.32c7.81 0 9.24-0.99 10.89-9.35l3.19-10.67h6.05v27.84h-59.08v-7.05z"/>
			<path d="m426.95 66.68 6.61-0.66v-56.78l-6.61-0.44v-7.59h32.35c20.14 0 38.62 9.24 38.62 36.2 0 26.63-18.37 36.31-38.29 36.31h-32.68v-7.04zm26.64-57.77v57h4.95c12.32 0 17.93-6.6 17.93-28.5 0-23.33-5.83-28.5-17.71-28.5h-5.17z"/>
		
		<path class="st0" d="M6.2,91.49c-1.97,0-6.2,1.85-6.2,1.85s4.23,1.85,6.2,1.85h486.02v-3.69H6.2z"/>
		<path class="st1" d="m501.41 103.94c-5.86 0-10.6-4.75-10.6-10.6s4.75-10.6 10.6-10.6 10.59 4.75 10.59 10.6-4.75 10.6-10.59 10.6"/>
	

</svg>
